<svg xmlns="http://www.w3.org/2000/svg" style="display:none">
  <symbol id="icon-eye" viewBox="0 0 24 24">
    <path d="M12 4.5C7 4.5 2.73 7.61 1 12c1.73 4.39 6 7.5 11 7.5s9.27-3.11 11-7.5c-1.73-4.39-6-7.5-11-7.5zM12 17c-2.76 0-5-2.24-5-5s2.24-5 5-5 5 2.24 5 5-2.24 5-5 5zm0-8c-1.66 0-3 1.34-3 3s1.34 3 3 3 3-1.34 3-3-1.34-3-3-3z"/>
  </symbol>
  <symbol id="icon-file" viewBox="0 0 24 24">
    <path d="M6 2c-1.1 0-2 .9-2 2v16c0 1.1.9 2 2 2h12c1.1 0 2-.9 2-2V8l-6-6H6zm0 18V4h7v5h5v11H6z"/>
  </symbol>
  <symbol id="icon-calendar" viewBox="0 0 24 24">
    <path d="M19 3h-1V1h-2v2H8V1H6v2H5c-1.1 0-2 .9-2 2v14c0 1.1.9 2 2 2h14c1.1 0 2-.9 2-2V5c0-1.1-.9-2-2-2zm0 16H5V8h14v11zM7 10h5v5H7z"/>
  </symbol>
  <symbol id="icon-info" viewBox="0 0 24 24">
    <path d="M12 2C6.48 2 2 6.48 2 12s4.48 10 10 10 10-4.48 10-10S17.52 2 12 2zm1 15h-2v-6h2v6zm0-8h-2V7h2v2z"/>
  </symbol>
  <symbol id="icon-upload" viewBox="0 0 24 24">
    <path d="M9 16h6v-6h4l-7-7-7 7h4v6zm-4 2h14v2H5v-2z"/>
  </symbol>
</svg>